<svg width="144" height="60" viewBox="0 0 144 60" fill="none" xmlns="http://www.w3.org/2000/svg">
<path d="M44.5762 53.224C43.8295 53.224 43.1855 52.972 42.6442 52.468C42.1215 51.9453 41.8602 51.2827 41.8602 50.48C41.8602 49.6773 42.1215 49.0333 42.6442 48.548C43.1855 48.044 43.8295 47.792 44.5762 47.792C45.3415 47.792 45.9855 48.044 46.5082 48.548C47.0308 49.0333 47.2922 49.6773 47.2922 50.48C47.2922 51.2827 47.0308 51.9453 46.5082 52.468C45.9855 52.972 45.3415 53.224 44.5762 53.224ZM51.9043 53.224C51.1576 53.224 50.5136 52.972 49.9723 52.468C49.4496 51.9453 49.1883 51.2827 49.1883 50.48C49.1883 49.6773 49.4496 49.0333 49.9723 48.548C50.5136 48.044 51.1576 47.792 51.9043 47.792C52.6696 47.792 53.3136 48.044 53.8363 48.548C54.359 49.0333 54.6203 49.6773 54.6203 50.48C54.6203 51.2827 54.359 51.9453 53.8363 52.468C53.3136 52.972 52.6696 53.224 51.9043 53.224ZM59.2324 53.224C58.4858 53.224 57.8418 52.972 57.3004 52.468C56.7778 51.9453 56.5164 51.2827 56.5164 50.48C56.5164 49.6773 56.7778 49.0333 57.3004 48.548C57.8418 48.044 58.4858 47.792 59.2324 47.792C59.9978 47.792 60.6418 48.044 61.1644 48.548C61.6871 49.0333 61.9484 49.6773 61.9484 50.48C61.9484 51.2827 61.6871 51.9453 61.1644 52.468C60.6418 52.972 59.9978 53.224 59.2324 53.224Z" fill="#F57DBA"/>
<mask id="path-2-inside-1_2_27" fill="white">
<path d="M65.2945 19C65.2945 19.55 65.6651 20 66.1181 20H69.4125C69.8655 20 70.2362 19.55 70.2362 19V18H65.2945V19ZM67.7653 0C64.5862 0 62 3.14 62 7C62 9.38 62.9801 11.47 64.4708 12.74V15C64.4708 15.55 64.8415 16 65.2945 16H70.2362C70.6891 16 71.0598 15.55 71.0598 15V12.74C72.5505 11.47 73.5306 9.38 73.5306 7C73.5306 3.14 70.9445 0 67.7653 0ZM69.4125 11.7V14H66.1181V11.7C64.8662 10.63 63.6472 9.53 63.6472 7C63.6472 4.24 65.4921 2 67.7653 2C70.0385 2 71.8834 4.24 71.8834 7C71.8834 9.49 70.6397 10.65 69.4125 11.7Z"/>
</mask>
<path d="M65.2945 19C65.2945 19.55 65.6651 20 66.1181 20H69.4125C69.8655 20 70.2362 19.55 70.2362 19V18H65.2945V19ZM67.7653 0C64.5862 0 62 3.14 62 7C62 9.38 62.9801 11.47 64.4708 12.74V15C64.4708 15.55 64.8415 16 65.2945 16H70.2362C70.6891 16 71.0598 15.55 71.0598 15V12.74C72.5505 11.47 73.5306 9.38 73.5306 7C73.5306 3.14 70.9445 0 67.7653 0ZM69.4125 11.7V14H66.1181V11.7C64.8662 10.63 63.6472 9.53 63.6472 7C63.6472 4.24 65.4921 2 67.7653 2C70.0385 2 71.8834 4.24 71.8834 7C71.8834 9.49 70.6397 10.65 69.4125 11.7Z" fill="#FCE621"/>
<path d="M70.2362 18H73.2362V15H70.2362V18ZM65.2945 18V15H62.2945V18H65.2945ZM64.4708 12.74H67.4708V11.3547L66.4163 10.4564L64.4708 12.74ZM71.0598 12.74L69.1143 10.4564L68.0598 11.3547V12.74H71.0598ZM69.4125 11.7L67.4622 9.42051L66.4125 10.3186V11.7H69.4125ZM69.4125 14V17H72.4125V14H69.4125ZM66.1181 14H63.1181V17H66.1181V14ZM66.1181 11.7H69.1181V10.3176L68.0672 9.41948L66.1181 11.7ZM62.2945 19C62.2945 20.636 63.4899 23 66.1181 23V17C66.9383 17 67.5345 17.4134 67.8521 17.799C68.1663 18.1805 68.2945 18.6131 68.2945 19H62.2945ZM66.1181 23H69.4125V17H66.1181V23ZM69.4125 23C72.0407 23 73.2362 20.636 73.2362 19H67.2362C67.2362 18.6131 67.3643 18.1805 67.6785 17.799C67.9961 17.4134 68.5923 17 69.4125 17V23ZM73.2362 19V18H67.2362V19H73.2362ZM70.2362 15H65.2945V21H70.2362V15ZM62.2945 18V19H68.2945V18H62.2945ZM67.7653 -3C62.411 -3 59 2.05403 59 7H65C65 4.22597 66.7613 3 67.7653 3V-3ZM59 7C59 10.1805 60.3081 13.1347 62.5254 15.0236L66.4163 10.4564C65.6521 9.80531 65 8.57949 65 7H59ZM61.4708 12.74V15H67.4708V12.74H61.4708ZM61.4708 15C61.4708 16.636 62.6663 19 65.2945 19V13C66.1147 13 66.7109 13.4134 67.0285 13.799C67.3427 14.1805 67.4708 14.6131 67.4708 15H61.4708ZM65.2945 19H70.2362V13H65.2945V19ZM70.2362 19C72.8643 19 74.0598 16.636 74.0598 15H68.0598C68.0598 14.6131 68.1879 14.1805 68.5021 13.799C68.8197 13.4134 69.4159 13 70.2362 13V19ZM74.0598 15V12.74H68.0598V15H74.0598ZM73.0053 15.0236C75.2225 13.1347 76.5306 10.1805 76.5306 7H70.5306C70.5306 8.57949 69.8785 9.80531 69.1143 10.4564L73.0053 15.0236ZM76.5306 7C76.5306 2.05403 73.1196 -3 67.7653 -3V3C68.7693 3 70.5306 4.22597 70.5306 7H76.5306ZM66.4125 11.7V14H72.4125V11.7H66.4125ZM69.4125 11H66.1181V17H69.4125V11ZM69.1181 14V11.7H63.1181V14H69.1181ZM68.0672 9.41948C67.4221 8.86808 67.1349 8.58671 66.9444 8.28722C66.8092 8.07463 66.6472 7.73265 66.6472 7H60.6472C60.6472 8.79735 61.0948 10.2704 61.882 11.5078C62.6139 12.6583 63.5622 13.4619 64.1689 13.9805L68.0672 9.41948ZM66.6472 7C66.6472 6.27669 66.8908 5.71062 67.1695 5.37224C67.4433 5.03988 67.669 5 67.7653 5V-1C63.3169 -1 60.6472 3.15403 60.6472 7H66.6472ZM67.7653 5C67.8616 5 68.0874 5.03988 68.3611 5.37224C68.6398 5.71062 68.8834 6.27669 68.8834 7H74.8834C74.8834 3.15403 72.2137 -1 67.7653 -1V5ZM68.8834 7C68.8834 7.69408 68.7247 8.04657 68.5743 8.28386C68.3749 8.59842 68.0737 8.89723 67.4622 9.42051L71.3629 13.9795C71.9785 13.4528 72.9128 12.6466 73.642 11.4961C74.4202 10.2684 74.8834 8.79592 74.8834 7H68.8834Z" fill="white" mask="url(#path-2-inside-1_2_27)"/>
<path d="M88.0747 5.3775C155.157 -6.03273 162.765 57.4677 86 48.0418" stroke="#F57DBA" stroke-opacity="0.89" stroke-width="6"/>
<path d="M15.94 43.14C14.8733 43.14 13.9467 42.9467 13.16 42.56C12.3733 42.16 11.76 41.6133 11.32 40.92C10.8933 40.2133 10.68 39.3867 10.68 38.44C10.68 37.2267 10.9467 36.1533 11.48 35.22C12.0133 34.2867 12.74 33.5533 13.66 33.02C14.5933 32.4733 15.6533 32.2 16.84 32.2C17.84 32.2 18.7067 32.3867 19.44 32.76C20.1733 33.1333 20.74 33.6733 21.14 34.38C21.5533 35.0733 21.76 35.9067 21.76 36.88C21.76 37.1333 21.7467 37.3933 21.72 37.66C21.6933 37.9267 21.6533 38.1733 21.6 38.4H12.54L12.82 36.74H20.42L19.4 37.3C19.5067 36.62 19.46 36.0533 19.26 35.6C19.06 35.1467 18.74 34.8 18.3 34.56C17.86 34.32 17.3333 34.2 16.72 34.2C15.9867 34.2 15.3467 34.3733 14.8 34.72C14.2667 35.0533 13.8533 35.5333 13.56 36.16C13.2667 36.7733 13.12 37.4933 13.12 38.32C13.12 39.1867 13.3667 39.8533 13.86 40.32C14.3667 40.7867 15.1467 41.02 16.2 41.02C16.8 41.02 17.3733 40.9267 17.92 40.74C18.4667 40.54 18.92 40.2667 19.28 39.92L20.32 41.66C19.76 42.1533 19.0933 42.5267 18.32 42.78C17.56 43.02 16.7667 43.14 15.94 43.14ZM30.9028 32.2C31.8228 32.2 32.6028 32.3867 33.2428 32.76C33.8828 33.1333 34.3295 33.6867 34.5828 34.42C34.8495 35.14 34.8761 36.0267 34.6628 37.08L33.4828 43H30.9828L32.1428 37.14C32.3161 36.2733 32.2361 35.6 31.9028 35.12C31.5695 34.6267 30.9628 34.38 30.0828 34.38C29.1628 34.38 28.4028 34.6333 27.8028 35.14C27.2028 35.6467 26.7961 36.42 26.5828 37.46L25.4628 43H22.9628L25.0828 32.32H27.4628L26.8628 35.36L26.4628 34.4C26.9695 33.64 27.6028 33.0867 28.3628 32.74C29.1361 32.38 29.9828 32.2 30.9028 32.2ZM40.6542 43.14C39.9609 43.14 39.3609 42.9933 38.8542 42.7C38.3609 42.3933 38.0009 41.9667 37.7742 41.42C37.5609 40.86 37.5276 40.2 37.6742 39.44L39.5742 29.96H42.0742L40.1742 39.42C40.0942 39.9133 40.1476 40.3133 40.3342 40.62C40.5209 40.9267 40.8742 41.08 41.3942 41.08C41.6342 41.08 41.8742 41.0467 42.1142 40.98C42.3676 40.9 42.5942 40.7933 42.7942 40.66L43.2342 42.5C42.8609 42.74 42.4476 42.9067 41.9942 43C41.5409 43.0933 41.0942 43.14 40.6542 43.14ZM36.9542 34.4L37.3542 32.4H44.4542L44.0542 34.4H36.9542ZM50.1392 43.14C49.0726 43.14 48.1459 42.9467 47.3592 42.56C46.5726 42.16 45.9592 41.6133 45.5192 40.92C45.0926 40.2133 44.8792 39.3867 44.8792 38.44C44.8792 37.2267 45.1459 36.1533 45.6792 35.22C46.2126 34.2867 46.9392 33.5533 47.8592 33.02C48.7926 32.4733 49.8526 32.2 51.0392 32.2C52.0392 32.2 52.9059 32.3867 53.6392 32.76C54.3726 33.1333 54.9392 33.6733 55.3392 34.38C55.7526 35.0733 55.9592 35.9067 55.9592 36.88C55.9592 37.1333 55.9459 37.3933 55.9192 37.66C55.8926 37.9267 55.8526 38.1733 55.7992 38.4H46.7392L47.0192 36.74H54.6192L53.5992 37.3C53.7059 36.62 53.6592 36.0533 53.4592 35.6C53.2592 35.1467 52.9392 34.8 52.4992 34.56C52.0592 34.32 51.5326 34.2 50.9192 34.2C50.1859 34.2 49.5459 34.3733 48.9992 34.72C48.4659 35.0533 48.0526 35.5333 47.7592 36.16C47.4659 36.7733 47.3192 37.4933 47.3192 38.32C47.3192 39.1867 47.5659 39.8533 48.0592 40.32C48.5659 40.7867 49.3459 41.02 50.3992 41.02C50.9992 41.02 51.5726 40.9267 52.1192 40.74C52.6659 40.54 53.1192 40.2667 53.4792 39.92L54.5192 41.66C53.9592 42.1533 53.2926 42.5267 52.5192 42.78C51.7592 43.02 50.9659 43.14 50.1392 43.14ZM57.162 43L59.282 32.32H61.662L61.062 35.36L60.842 34.48C61.3354 33.6133 61.962 33.02 62.722 32.7C63.482 32.3667 64.4087 32.2 65.502 32.2L65.042 34.58C64.9354 34.5533 64.8354 34.54 64.742 34.54C64.6487 34.5267 64.542 34.52 64.422 34.52C63.4487 34.52 62.642 34.78 62.002 35.3C61.362 35.8067 60.9354 36.62 60.722 37.74L59.662 43H57.162ZM71.9228 43.14C71.0295 43.14 70.2561 42.98 69.6028 42.66C68.9495 42.3267 68.4561 41.84 68.1228 41.2C67.7895 40.5467 67.6361 39.74 67.6628 38.78C67.6895 37.4467 67.9295 36.2867 68.3828 35.3C68.8361 34.3133 69.4695 33.5533 70.2828 33.02C71.1095 32.4733 72.0895 32.2 73.2228 32.2C74.1028 32.2 74.8961 32.3867 75.6028 32.76C76.3095 33.12 76.8695 33.6533 77.2828 34.36C77.7095 35.0533 77.9228 35.8933 77.9228 36.88C77.9228 37.7867 77.7695 38.62 77.4628 39.38C77.1695 40.14 76.7495 40.8 76.2028 41.36C75.6561 41.92 75.0161 42.36 74.2828 42.68C73.5628 42.9867 72.7761 43.14 71.9228 43.14ZM64.6828 46.88L67.5828 32.32H69.9628L69.4828 34.76L68.8228 37.6L68.4628 40.46L67.1828 46.88H64.6828ZM71.7228 41C72.4428 41 73.0761 40.8333 73.6228 40.5C74.1695 40.1533 74.6028 39.68 74.9228 39.08C75.2428 38.48 75.4028 37.7867 75.4028 37C75.4028 36.1733 75.1561 35.52 74.6628 35.04C74.1695 34.56 73.4761 34.32 72.5828 34.32C71.8761 34.32 71.2428 34.4933 70.6828 34.84C70.1361 35.1733 69.7028 35.64 69.3828 36.24C69.0628 36.84 68.9028 37.5333 68.9028 38.32C68.9028 39.1467 69.1495 39.8 69.6428 40.28C70.1361 40.76 70.8295 41 71.7228 41ZM79.1738 43L81.2938 32.32H83.6738L83.0738 35.36L82.8538 34.48C83.3471 33.6133 83.9738 33.02 84.7338 32.7C85.4938 32.3667 86.4204 32.2 87.5138 32.2L87.0538 34.58C86.9471 34.5533 86.8471 34.54 86.7538 34.54C86.6604 34.5267 86.5538 34.52 86.4338 34.52C85.4604 34.52 84.6538 34.78 84.0138 35.3C83.3738 35.8067 82.9471 36.62 82.7338 37.74L81.6738 43H79.1738ZM87.4745 43L89.5945 32.32H92.0945L89.9745 43H87.4745ZM91.4145 30.56C90.9612 30.56 90.5945 30.4267 90.3145 30.16C90.0479 29.88 89.9145 29.5467 89.9145 29.16C89.9145 28.7067 90.0679 28.3267 90.3745 28.02C90.6945 27.7133 91.1079 27.56 91.6145 27.56C92.0545 27.56 92.4145 27.6933 92.6945 27.96C92.9745 28.2133 93.1145 28.5267 93.1145 28.9C93.1145 29.3933 92.9612 29.7933 92.6545 30.1C92.3479 30.4067 91.9345 30.56 91.4145 30.56ZM96.8958 43.14C95.9624 43.14 95.0891 43.0267 94.2758 42.8C93.4624 42.5733 92.8358 42.3 92.3958 41.98L93.4358 40.06C93.8758 40.3667 94.4224 40.62 95.0758 40.82C95.7424 41.0067 96.4358 41.1 97.1558 41.1C97.9824 41.1 98.5891 40.9867 98.9758 40.76C99.3758 40.5333 99.5758 40.22 99.5758 39.82C99.5758 39.5267 99.4358 39.3067 99.1558 39.16C98.8758 39.0133 98.5158 38.8933 98.0758 38.8C97.6491 38.7067 97.1824 38.6067 96.6758 38.5C96.1824 38.3933 95.7158 38.2467 95.2758 38.06C94.8491 37.8733 94.4958 37.6 94.2158 37.24C93.9358 36.88 93.7958 36.4 93.7958 35.8C93.7958 35.04 94.0091 34.3933 94.4358 33.86C94.8624 33.3267 95.4558 32.92 96.2158 32.64C96.9891 32.3467 97.8758 32.2 98.8758 32.2C99.5958 32.2 100.302 32.28 100.996 32.44C101.689 32.6 102.262 32.8267 102.716 33.12L101.796 35.04C101.316 34.7333 100.796 34.52 100.236 34.4C99.6891 34.28 99.1558 34.22 98.6358 34.22C97.8224 34.22 97.2158 34.3467 96.8158 34.6C96.4291 34.84 96.2358 35.1467 96.2358 35.52C96.2358 35.8133 96.3758 36.04 96.6558 36.2C96.9358 36.36 97.2891 36.4933 97.7158 36.6C98.1558 36.6933 98.6224 36.7933 99.1158 36.9C99.6224 36.9933 100.089 37.1333 100.516 37.32C100.956 37.5067 101.316 37.78 101.596 38.14C101.876 38.4867 102.016 38.9533 102.016 39.54C102.016 40.3133 101.796 40.9733 101.356 41.52C100.929 42.0533 100.329 42.46 99.5558 42.74C98.7824 43.0067 97.8958 43.14 96.8958 43.14ZM108.909 43.14C107.842 43.14 106.915 42.9467 106.129 42.56C105.342 42.16 104.729 41.6133 104.289 40.92C103.862 40.2133 103.649 39.3867 103.649 38.44C103.649 37.2267 103.915 36.1533 104.449 35.22C104.982 34.2867 105.709 33.5533 106.629 33.02C107.562 32.4733 108.622 32.2 109.809 32.2C110.809 32.2 111.675 32.3867 112.409 32.76C113.142 33.1333 113.709 33.6733 114.109 34.38C114.522 35.0733 114.729 35.9067 114.729 36.88C114.729 37.1333 114.715 37.3933 114.689 37.66C114.662 37.9267 114.622 38.1733 114.569 38.4H105.509L105.789 36.74H113.389L112.369 37.3C112.475 36.62 112.429 36.0533 112.229 35.6C112.029 35.1467 111.709 34.8 111.269 34.56C110.829 34.32 110.302 34.2 109.689 34.2C108.955 34.2 108.315 34.3733 107.769 34.72C107.235 35.0533 106.822 35.5333 106.529 36.16C106.235 36.7733 106.089 37.4933 106.089 38.32C106.089 39.1867 106.335 39.8533 106.829 40.32C107.335 40.7867 108.115 41.02 109.169 41.02C109.769 41.02 110.342 40.9267 110.889 40.74C111.435 40.54 111.889 40.2667 112.249 39.92L113.289 41.66C112.729 42.1533 112.062 42.5267 111.289 42.78C110.529 43.02 109.735 43.14 108.909 43.14Z" fill="#FA066C"/>
<path d="M10 45.5H115.349V46.5H10V45.5Z" fill="#FA066C"/>
<path d="M1.992 30V13.2H9.264C10.768 13.2 12.064 13.448 13.152 13.944C14.24 14.424 15.08 15.12 15.672 16.032C16.264 16.944 16.56 18.032 16.56 19.296C16.56 20.544 16.264 21.624 15.672 22.536C15.08 23.432 14.24 24.12 13.152 24.6C12.064 25.08 10.768 25.32 9.264 25.32H4.152L5.88 23.616V30H1.992ZM12.672 30L8.472 23.904H12.624L16.872 30H12.672ZM5.88 24.048L4.152 22.224H9.048C10.248 22.224 11.144 21.968 11.736 21.456C12.328 20.928 12.624 20.208 12.624 19.296C12.624 18.368 12.328 17.648 11.736 17.136C11.144 16.624 10.248 16.368 9.048 16.368H4.152L5.88 14.52V24.048ZM25.7844 30.192C24.3124 30.192 23.0164 29.904 21.8964 29.328C20.7924 28.752 19.9364 27.968 19.3284 26.976C18.7204 25.968 18.4164 24.824 18.4164 23.544C18.4164 22.248 18.7124 21.104 19.3044 20.112C19.9124 19.104 20.7364 18.32 21.7764 17.76C22.8164 17.184 23.9924 16.896 25.3044 16.896C26.5684 16.896 27.7044 17.168 28.7124 17.712C29.7364 18.24 30.5444 19.008 31.1364 20.016C31.7284 21.008 32.0244 22.2 32.0244 23.592C32.0244 23.736 32.0164 23.904 32.0004 24.096C31.9844 24.272 31.9684 24.44 31.9524 24.6H21.4644V22.416H29.9844L28.5444 23.064C28.5444 22.392 28.4084 21.808 28.1364 21.312C27.8644 20.816 27.4884 20.432 27.0084 20.16C26.5284 19.872 25.9684 19.728 25.3284 19.728C24.6884 19.728 24.1204 19.872 23.6244 20.16C23.1444 20.432 22.7684 20.824 22.4964 21.336C22.2244 21.832 22.0884 22.424 22.0884 23.112V23.688C22.0884 24.392 22.2404 25.016 22.5444 25.56C22.8644 26.088 23.3044 26.496 23.8644 26.784C24.4404 27.056 25.1124 27.192 25.8804 27.192C26.5684 27.192 27.1684 27.088 27.6804 26.88C28.2084 26.672 28.6884 26.36 29.1204 25.944L31.1124 28.104C30.5204 28.776 29.7764 29.296 28.8804 29.664C27.9844 30.016 26.9524 30.192 25.7844 30.192ZM32.5335 30L38.3175 22.416L38.2455 24.48L32.7015 17.088H36.9015L40.4055 21.912L38.8215 21.96L42.4455 17.088H46.4295L40.8615 24.408V22.392L46.6215 30H42.3735L38.7015 24.864L40.2615 25.08L36.6135 30H32.5335ZM53.2039 30L45.9559 13.2H50.1559L56.4919 28.08H54.0199L60.4519 13.2H64.3159L57.0439 30H53.2039ZM72.603 30V17.088H76.179V20.736L75.675 19.68C76.059 18.768 76.675 18.08 77.523 17.616C78.371 17.136 79.403 16.896 80.619 16.896V20.352C80.459 20.336 80.315 20.328 80.187 20.328C80.059 20.312 79.923 20.304 79.779 20.304C78.755 20.304 77.923 20.6 77.283 21.192C76.659 21.768 76.347 22.672 76.347 23.904V30H72.603ZM88.5705 30.192C87.0505 30.192 85.8665 29.808 85.0185 29.04C84.1705 28.256 83.7465 27.096 83.7465 25.56V14.232H87.4905V25.512C87.4905 26.056 87.6345 26.48 87.9225 26.784C88.2105 27.072 88.6025 27.216 89.0985 27.216C89.6905 27.216 90.1945 27.056 90.6105 26.736L91.6185 29.376C91.2345 29.648 90.7705 29.856 90.2265 30C89.6985 30.128 89.1465 30.192 88.5705 30.192ZM81.7545 20.256V17.376H90.7065V20.256H81.7545ZM99.1682 30.192C98.0962 30.192 97.1362 29.984 96.2882 29.568C95.4562 29.152 94.8082 28.52 94.3442 27.672C93.8802 26.808 93.6482 25.712 93.6482 24.384V17.088H97.3922V23.832C97.3922 24.904 97.6162 25.696 98.0642 26.208C98.5282 26.704 99.1762 26.952 100.008 26.952C100.584 26.952 101.096 26.832 101.544 26.592C101.992 26.336 102.344 25.952 102.6 25.44C102.856 24.912 102.984 24.256 102.984 23.472V17.088H106.728V30H103.176V26.448L103.824 27.48C103.392 28.376 102.752 29.056 101.904 29.52C101.072 29.968 100.16 30.192 99.1682 30.192ZM118.117 30V27.48L117.877 26.928V22.416C117.877 21.616 117.629 20.992 117.133 20.544C116.653 20.096 115.909 19.872 114.901 19.872C114.213 19.872 113.533 19.984 112.861 20.208C112.205 20.416 111.645 20.704 111.181 21.072L109.837 18.456C110.541 17.96 111.389 17.576 112.381 17.304C113.373 17.032 114.381 16.896 115.405 16.896C117.373 16.896 118.901 17.36 119.989 18.288C121.077 19.216 121.621 20.664 121.621 22.632V30H118.117ZM114.181 30.192C113.173 30.192 112.309 30.024 111.589 29.688C110.869 29.336 110.317 28.864 109.933 28.272C109.549 27.68 109.357 27.016 109.357 26.28C109.357 25.512 109.541 24.84 109.909 24.264C110.293 23.688 110.893 23.24 111.709 22.92C112.525 22.584 113.589 22.416 114.901 22.416H118.333V24.6H115.309C114.429 24.6 113.821 24.744 113.485 25.032C113.165 25.32 113.005 25.68 113.005 26.112C113.005 26.592 113.189 26.976 113.557 27.264C113.941 27.536 114.461 27.672 115.117 27.672C115.741 27.672 116.301 27.528 116.797 27.24C117.293 26.936 117.653 26.496 117.877 25.92L118.453 27.648C118.181 28.48 117.685 29.112 116.965 29.544C116.245 29.976 115.317 30.192 114.181 30.192ZM125.009 30V12.192H128.753V30H125.009Z" fill="white"/>
<line x1="68" y1="20" x2="68" y2="30" stroke="white" stroke-width="4"/>
</svg>
